<svg version="1.1" id="Layer_1" xmlns="http://www.w3.org/2000/svg" x="0" y="0" viewBox="0 0 256 256" style="enable-background:new 0 0 256 256" xml:space="preserve"><style>.st4{fill:#afafaf}.st6{fill:#f0c020}.st8{fill:#efefef}.st17{fill:#4c4944}</style><path class="st6" d="M251.463 189.657v18.396h-19.76c-2.18-3.43-6.02-5.71-10.4-5.71s-8.22 2.28-10.41 5.71h-21.51v-55.604h33.437a5 5 0 0 1 4.946 4.266l1.197 8.064 2.67 18 15.446 1.916a5 5 0 0 1 4.384 4.962z"/><path style="fill:#72c2e9" d="M231.633 182.779h-29.25v-18h26.58z"/><path class="st4" d="M189.383 182.779v25.274h-88.57c-2.18-3.43-6.02-5.71-10.4-5.71s-8.22 2.28-10.4 5.71h-16.43c-2.18-3.43-6.02-5.71-10.4-5.71s-8.22 2.28-10.4 5.71H9.537a5 5 0 0 1-5-5v-15.274a5 5 0 0 1 5-5h179.846z"/><path class="st17" d="M233.633 214.673c0 6.81-5.52 12.34-12.33 12.34s-12.34-5.53-12.34-12.34c0-2.44.71-4.71 1.93-6.62 2.19-3.43 6.03-5.71 10.41-5.71s8.22 2.28 10.4 5.71c1.22 1.91 1.93 4.18 1.93 6.62zM102.743 214.673c0 6.81-5.52 12.34-12.33 12.34s-12.33-5.53-12.33-12.34c0-2.44.71-4.71 1.93-6.62 2.18-3.43 6.02-5.71 10.4-5.71s8.22 2.28 10.4 5.71c1.22 1.91 1.93 4.18 1.93 6.62zM65.513 214.673c0 6.81-5.52 12.34-12.33 12.34s-12.33-5.53-12.33-12.34c0-2.44.71-4.71 1.93-6.62 2.18-3.43 6.02-5.71 10.4-5.71s8.22 2.28 10.4 5.71c1.22 1.91 1.93 4.18 1.93 6.62z"/><path class="st8" d="M180.3 201.27a2.5 2.5 0 0 1-2.5-2.5v-4.927H26.54a2.5 2.5 0 1 1 0-5H180.3a2.5 2.5 0 0 1 2.5 2.5v7.427a2.5 2.5 0 0 1-2.5 2.5zm-163.76-7.427h-2a2.5 2.5 0 1 1 0-5h2a2.5 2.5 0 1 1 0 5z"/><path class="st6" d="m178.974 161.829-3.55-14.11-14.738-58.644 1.977-2.012a2.105 2.105 0 0 0-.054-3.005l-42.411-40.145-.039.014a2.102 2.102 0 0 0 .594-2.973l-7.67-11.06a2.1 2.1 0 0 0-2.96-.51l-26.79 19.33c5.672 2.818 8.564 9.008 7.63 14.62l16.157-10.749 38.844 39.704 13.02 59.789 2.99 13.74a8.74 8.74 0 0 0 10.53 6.65c4.75-1.119 7.66-5.909 6.47-10.639z"/><path class="st4" d="M189.394 144.019v38.76h-39.36v-28.33l8.95-2.37 2.99 13.74a8.74 8.74 0 0 0 10.53 6.65 8.74 8.74 0 0 0 6.47-10.64l-3.55-14.11 13.97-3.7zM90.963 63.335c-.99 6.77-6.82 11.96-13.86 11.96-7.74 0-14.02-6.28-14.02-14.02 0-7.74 6.28-14.02 14.02-14.02 2.24 0 4.36.53 6.23 1.46 5.672 2.818 8.564 9.008 7.63 14.62z"/><circle class="st8" cx="77.102" cy="61.279" r="5.28"/><path style="fill:#fc5d3d" d="M24.04 119.949h106.123v32.5H24.04z"/><path d="M119.913 146.824h-73.75a2.5 2.5 0 1 1 0-5h71.25v-13.75a2.5 2.5 0 1 1 5 0v16.25a2.5 2.5 0 0 1-2.5 2.5zm-83.75 0h-3.375a2.5 2.5 0 1 1 0-5h3.375a2.5 2.5 0 1 1 0 5z" style="fill:#ffcbc3"/><path class="st17" d="M233.633 214.673c0 6.81-5.52 12.34-12.33 12.34s-12.34-5.53-12.34-12.34c0-2.44.71-4.71 1.93-6.62 2.19-3.43 6.03-5.71 10.41-5.71s8.22 2.28 10.4 5.71c1.22 1.91 1.93 4.18 1.93 6.62zM102.743 214.673c0 6.81-5.52 12.34-12.33 12.34s-12.33-5.53-12.33-12.34c0-2.44.71-4.71 1.93-6.62 2.18-3.43 6.02-5.71 10.4-5.71s8.22 2.28 10.4 5.71c1.22 1.91 1.93 4.18 1.93 6.62zM65.513 214.673c0 6.81-5.52 12.34-12.33 12.34s-12.33-5.53-12.33-12.34c0-2.44.71-4.71 1.93-6.62 2.18-3.43 6.02-5.71 10.4-5.71s8.22 2.28 10.4 5.71c1.22 1.91 1.93 4.18 1.93 6.62z"/><circle cx="213.34" cy="152.45" r="2.5"/><path d="M253.96 208.05v-18.39c0-3.78-2.83-6.98-6.57-7.45l-13.56-1.68-3.59-24.18c-.511-3.39-3.24-6.01-6.641-6.36-1.37-.15-2.6.86-2.75 2.23-.14 1.37.86 2.6 2.23 2.74 1.14.12 2.05.99 2.21 2.12l.772 5.2h-23.678a2.5 2.5 0 0 0-2.5 2.5v18a2.5 2.5 0 0 0 2.5 2.5h29.103l15.282 1.9c1.25.15 2.2 1.22 2.19 2.48v15.89H233c-5.958-7.639-17.491-7.562-23.4 0h-17.72c0-19.51.015-24.129.015-50.6h11.445a2.5 2.5 0 0 0 0-5h-11.445v-5.93c0-1.643-1.562-2.839-3.14-2.417l-11.521 3.051-5.154-20.495c-.33-1.31-1.721-2.15-3.03-1.81a2.492 2.492 0 0 0-1.82 3.03l9.32 37.06c.846 3.257-1.112 6.769-4.62 7.6-3.682.781-6.831-1.589-7.51-4.75l-14.33-65.82c1.625.65 3.592.292 4.926-1.064l4.326-4.399 3.018 11.973a2.52 2.52 0 0 0 3.03 1.82c1.34-.34 2.15-1.7 1.82-3.04l-3.757-14.933.993-1.01a4.604 4.604 0 0 0-.118-6.574l-40.925-38.737c.049-.159.11-.312.141-.477a4.583 4.583 0 0 0-.737-3.499l-7.668-11.056a4.564 4.564 0 0 0-2.999-1.919 4.581 4.581 0 0 0-3.48.803L83.011 45.865a16.585 16.585 0 0 0-5.907-1.11c-9.109 0-16.521 7.411-16.521 16.52 0 8.257 6.096 15.099 14.021 16.31v17.693L54.35 117.449H24.04a2.5 2.5 0 0 0-2.5 2.5v32.5a2.5 2.5 0 0 0 2.5 2.5h106.123a2.5 2.5 0 0 0 2.5-2.5v-32.5a2.5 2.5 0 0 0-2.5-2.5H99.859L79.604 95.275V77.587c6.67-1.036 12.17-6.123 13.613-12.748l13.569-9.02 36.887 37.706 12.357 56.75-6.636 1.757a2.499 2.499 0 0 0-1.86 2.417v25.831H9.54c-4.141 0-7.5 3.37-7.5 7.5v15.27c0 4.14 3.359 7.5 7.5 7.5h29.397a14.83 14.83 0 0 0-.584 4.123c0 8.183 6.652 14.84 14.83 14.84 8.177 0 14.829-6.657 14.829-14.84a14.83 14.83 0 0 0-.584-4.123h8.738a14.83 14.83 0 0 0-.584 4.123c0 8.183 6.652 14.84 14.83 14.84s14.83-6.657 14.83-14.84a14.83 14.83 0 0 0-.584-4.123h50.001a2.5 2.5 0 0 0 2.5-2.5c0-1.37-1.12-2.5-2.5-2.5h-52.551c-5.84-7.483-17.342-7.733-23.39 0H64.88c-6.042-7.747-17.58-7.459-23.39 0H9.54a2.5 2.5 0 0 1-2.5-2.5v-15.27a2.5 2.5 0 0 1 2.5-2.5h177.34v20.27h-12.22c-1.38 0-2.5 1.13-2.5 2.5a2.5 2.5 0 0 0 2.5 2.5h32.388a14.83 14.83 0 0 0-.584 4.123c0 8.183 6.657 14.84 14.84 14.84 8.178 0 14.83-6.657 14.83-14.84a14.83 14.83 0 0 0-.584-4.123h15.91c1.385 0 2.5-1.111 2.5-2.5zm-49.076-27.771v-13h21.92l1.93 13h-23.85zM52.96 149.949H26.54v-11.25h26.42v11.25zm0-16.25H26.54v-11.25h26.42v11.25zm48.29-11.25h26.413v11.25H101.25v-11.25zm0 16.25h26.413v11.25H101.25v-11.25zm-5 11.25h-38.3v-11.25h38.3v11.25zm0-16.25h-38.3v-11.25h38.3v11.25zm-3.17-16.25H61.12L77.1 99.96l15.98 17.489zM77.104 72.795c-6.353 0-11.521-5.168-11.521-11.52s5.168-11.52 11.521-11.52c6.186 0 11.52 4.957 11.52 11.55-.001 6.31-5.215 11.49-11.52 11.49zm16.321-14.1a16.5 16.5 0 0 0-5.689-10.073l23.522-16.973 7.212 10.4-25.045 16.646zm54.316 31.837-36.713-37.527 8.896-5.908 40.675 38.501-8.86 9.01-3.989-4.068-.009-.008zM90.413 204.843c5.582 0 9.83 4.556 9.83 9.83 0 5.426-4.41 9.84-9.83 9.84s-9.83-4.415-9.83-9.84c0-5.496 4.497-9.83 9.83-9.83zm-37.229 0c5.605 0 9.829 4.58 9.829 9.83 0 5.426-4.409 9.84-9.829 9.84s-9.83-4.415-9.83-9.84c0-5.484 4.482-9.83 9.83-9.83zm133.696-24.564h-34.346v-23.906l4.561-1.208 2.435 11.184c1.355 6.209 7.535 9.978 13.539 8.55 6.043-1.431 9.863-7.429 8.33-13.68l-2.946-11.717 8.441-2.236c.001.002-.014 1.413-.014 33.013zm34.424 44.234c-5.426 0-9.84-4.415-9.84-9.84 0-5.341 4.328-9.83 9.84-9.83 5.508 0 9.83 4.475 9.83 9.83 0 5.426-4.41 9.84-9.83 9.84z"/><circle cx="164.66" cy="208.05" r="2.5"/><path d="M53.184 217.741a2.5 2.5 0 0 0 2.5-2.5v-1.125a2.5 2.5 0 1 0-5 0v1.125a2.5 2.5 0 0 0 2.5 2.5zM90.413 217.741a2.5 2.5 0 0 0 2.5-2.5v-1.125a2.5 2.5 0 1 0-5 0v1.125a2.5 2.5 0 0 0 2.5 2.5zM221.299 211.616a2.5 2.5 0 0 0-2.5 2.5v1.125a2.5 2.5 0 1 0 5 0v-1.125a2.5 2.5 0 0 0-2.5-2.5zM204.384 194.989a2.5 2.5 0 1 0 0-5h-2a2.5 2.5 0 1 0 0 5h2zM111.812 38.704a2.499 2.499 0 0 0-3.512-.406l-1.112.882a2.5 2.5 0 1 0 3.106 3.918l1.112-.882a2.501 2.501 0 0 0 .406-3.512zM153.786 87.712a2.499 2.499 0 0 0 .271-3.525l-.924-1.078a2.5 2.5 0 1 0-3.796 3.254l.924 1.078a2.499 2.499 0 0 0 3.525.271zM166.609 112.65a2.5 2.5 0 0 0-1.819 3.03c.344 1.367 1.735 2.145 3.04 1.82a2.51 2.51 0 0 0 1.81-3.04c-.33-1.31-1.701-2.15-3.031-1.81zM170.686 164.934a2.5 2.5 0 0 0 1.947-2.951l-.285-1.391a2.5 2.5 0 1 0-4.898 1.004l.285 1.391a2.5 2.5 0 0 0 2.951 1.947zM77.102 53.5c-4.29 0-7.78 3.49-7.78 7.78s3.49 7.78 7.78 7.78 7.78-3.49 7.78-7.78-3.49-7.78-7.78-7.78zm0 10.559c-1.533 0-2.78-1.247-2.78-2.78s1.247-2.78 2.78-2.78 2.78 1.247 2.78 2.78-1.247 2.78-2.78 2.78z"/></svg>
