<svg xmlns="http://www.w3.org/2000/svg" viewBox="0 0 64 64" style="enable-background:new 0 0 64 64" xml:space="preserve"><path d="M60.341 43.245V31.07a.998.998 0 0 0-.111-.458l-5.59-10.839c-.92-1.779-1.754-2.626-4.007-2.626H38.362v-3.206h7.072c2.435 0 3.71-1.685 3.71-3.35 0-1.64-1.275-3.303-3.71-3.303H32.453c-.815 0-1.478.662-1.478 1.477v3.352H2.315c-.702 0-1.264.526-1.312 1.29L1 37.313c0 .113.019.223.056.329l2 5.75a3.139 3.139 0 0 0-1.163.71A3.059 3.059 0 0 0 4.06 49.32h5.392c.272 4.12 3.724 7.392 7.939 7.392 4.213 0 7.663-3.271 7.936-7.392h14.975c.273 4.12 3.723 7.392 7.936 7.392 4.215 0 7.666-3.271 7.939-7.392h3.813c1.688 0 3.01-1.362 3.01-3.1 0-1.54-1.166-2.798-2.659-2.974zM47.143 19.148h3.49c1.258 0 1.529.187 2.23 1.543l4.837 9.38H47.598a.462.462 0 0 1-.455-.457V19.148zm-2 0v10.466a2.459 2.459 0 0 0 2.455 2.456h10.743V36H55.01a1 1 0 1 0 0 2h3.331v5.21h-4.466a7.965 7.965 0 0 0-5.637-2.33 7.96 7.96 0 0 0-5.644 2.34c-.016-.001-.03-.01-.046-.01h-4.186V19.147h6.78zM40.42 47.32H25.209a7.814 7.814 0 0 0-.73-2.11h16.67a7.817 7.817 0 0 0-.73 2.11zM3 14.117h5.494v13.737a1 1 0 1 0 2 0V14.117h5.495v13.737a1 1 0 1 0 2 0V14.118h5.491v13.737a1 1 0 1 0 2 0V14.118h5.495v13.737a1 1 0 1 0 2 0V9.289h12.458c1.262 0 1.71.702 1.71 1.304 0 .672-.53 1.35-1.71 1.35h-8.072a1 1 0 0 0-1 1V43.21h-13.28c-.017 0-.031.01-.048.01a7.96 7.96 0 0 0-5.643-2.34c-2.2 0-4.194.892-5.637 2.33H5.11L3 37.144l.002-23.027zM3 46.27c0-.284.112-.558.297-.744.149-.144.402-.316.763-.316h6.24a7.812 7.812 0 0 0-.73 2.11H4.06c-.584 0-1.06-.471-1.06-1.05zm14.39 8.442c-3.289 0-5.965-2.653-5.965-5.914 0-3.263 2.676-5.917 5.966-5.917 3.287 0 5.962 2.654 5.962 5.917 0 3.26-2.675 5.914-5.962 5.914zm30.848 0c-3.288 0-5.963-2.653-5.963-5.914 0-3.263 2.675-5.917 5.963-5.917 3.29 0 5.966 2.654 5.966 5.917 0 3.26-2.677 5.914-5.966 5.914zM59.99 47.32h-3.93a7.815 7.815 0 0 0-.73-2.11h4.66c.557 0 1.01.453 1.01 1.01 0 .53-.316 1.1-1.01 1.1z"/><path d="M17.39 45.717a3.091 3.091 0 0 0-3.094 3.08c0 1.698 1.388 3.079 3.095 3.079s3.094-1.38 3.094-3.078c0-1.7-1.388-3.081-3.094-3.081zm0 4.159a1.088 1.088 0 0 1-1.094-1.078c0-.596.491-1.081 1.095-1.081s1.094.485 1.094 1.08c0 .596-.49 1.079-1.094 1.079zM48.238 45.717a3.09 3.09 0 0 0-3.092 3.08 3.089 3.089 0 0 0 3.092 3.079 3.09 3.09 0 0 0 3.095-3.078c0-1.7-1.389-3.081-3.095-3.081zm0 4.159a1.086 1.086 0 0 1-1.092-1.078c0-.596.49-1.081 1.092-1.081a1.09 1.09 0 0 1 1.095 1.08c0 .596-.492 1.079-1.095 1.079z"/></svg>
